<?xml version="1.0" standalone="yes"?>
<svg xmlns="http://www.w3.org/2000/svg" width="800" height="500">
<path style="fill:#3a69f3; stroke:none;" d="M0 0L0 283C49.2987 287.027 78.0516 344.754 108.09 377C148.375 420.248 201.248 449.748 256 470.576C286.929 482.341 321.111 495.001 354 499.7C370.705 502.087 389.122 500 406 500L510 500L800 500L800 296L800 239C800 232.551 802.188 221.262 799.397 215.394C797.867 212.178 792.986 211.373 790 210.139C782.158 206.897 774.503 203.181 767 199.219C743.622 186.876 724.103 169.753 705.17 151.576C684.646 131.872 666.852 109.514 646 90.0895C622.67 68.3569 595.962 50.6052 567 37.3087C528.456 19.6129 483.014 6.11472 441 0.209106C425.908 -1.91217 409.244 0 394 0L301 0L0 0z"/>
<path style="fill:#1f84ee; stroke:none;" d="M443 0L444 1L443 0z"/>
<path style="fill:#00a2e8; stroke:none;" d="M444 0L444 1C510.061 16.6475 575.011 32.3324 629 76.2608C685.22 122.004 725.866 193.764 800 214L800 0L444 0z"/>
<path style="fill:#386bf2; stroke:none;" d="M445 1L446 2L445 1z"/>
<path style="fill:#168dec; stroke:none;" d="M446 1L447 2L446 1z"/>
<path style="fill:#1f84ee; stroke:none;" d="M449 2L450 3L449 2z"/>
<path style="fill:#00a2e9; stroke:none;" d="M454 2L455 3L454 2z"/>
<path style="fill:#3f48cc; stroke:none;" d="M729 55C724.504 55 715.109 53.2187 711.377 56.0278C705.991 60.0806 720.987 68.7244 724 70C722.801 72.7851 715.715 90.6484 722.148 90.1188C727.701 89.6617 731.202 81.8036 737 82.3673C743.206 82.9707 747.463 90.0461 754 91L749 70C752.013 68.7244 767.009 60.0805 761.623 56.0278C757.891 53.2187 748.496 55 744 55C743.463 51.3623 741.196 37.6873 736.856 36.9213C732.34 36.1243 729.473 51.7949 729 55M0 283L0 500L353 500L353 499C329.799 495.876 306.143 487.381 284 480C224.801 460.267 169.576 432.974 123 390.83C85.2381 356.662 56.29 288.406 0 283z"/>
<path style="fill:#3f48cd; stroke:none;" d="M1 283L2 284L1 283M4 284L5 285L4 284z"/>
<path style="fill:#3a69f3; stroke:none;" d="M28 432L42.0718 448.004L39.1181 466.353L57 458.708L74.3573 466.863L71.9282 448.004L85.0787 433.975L78.9992 430.835L65.0856 427.682L57 411.207L48.2978 428.397L28 432z"/>
<path style="fill:#3f48cc; stroke:none;" d="M45 458L46 459L45 458z"/>
</svg>
